<?xml version="1.0" standalone="no"?>
<!DOCTYPE svg PUBLIC "-//W3C//DTD SVG 20010904//EN"
 "http://www.w3.org/TR/2001/REC-SVG-20010904/DTD/svg10.dtd">
<svg version="1.0" xmlns="http://www.w3.org/2000/svg"
 width="1000.000000pt" height="1000.000000pt" viewBox="0 0 1000.000000 1000.000000"
 preserveAspectRatio="xMidYMid meet">

<g transform="translate(0.000000,1000.000000) scale(0.100000,-0.100000)"
fill="#000000" stroke="none">
<path d="M3670 6664 c-238 -51 -507 -192 -765 -401 -188 -152 -393 -381 -448
-501 -32 -69 -31 -242 2 -326 30 -76 110 -160 166 -175 58 -16 142 -13 180 5
28 13 65 63 65 88 0 3 -25 6 -55 6 -76 0 -99 23 -93 91 11 113 136 297 324
479 107 103 194 178 194 166 0 -4 -34 -80 -76 -169 -202 -428 -454 -1037 -454
-1096 0 -77 68 -142 157 -149 l56 -5 81 89 c243 267 530 510 671 569 141 58
215 28 215 -88 0 -40 -3 -45 -37 -61 -55 -26 -192 -109 -313 -190 -365 -242
-705 -558 -858 -795 -62 -95 -85 -163 -86 -251 -1 -99 28 -153 106 -195 48
-27 61 -29 148 -29 148 1 259 45 480 190 142 92 249 182 406 338 274 275 475
598 506 816 l12 79 45 20 c66 27 160 55 166 49 3 -3 -8 -37 -25 -76 -91 -214
-160 -460 -160 -571 0 -63 1 -65 45 -107 78 -76 249 -104 328 -56 42 27 148
139 218 230 l48 63 7 -38 c11 -63 41 -110 97 -152 130 -98 204 -92 327 25 l60
57 0 -44 c0 -24 6 -71 13 -105 35 -164 148 -244 348 -244 120 0 132 6 73 39
-83 45 -89 61 -88 219 1 209 46 383 174 677 115 262 248 504 367 663 32 42
108 129 170 193 83 84 113 122 113 140 0 28 -38 69 -97 105 -118 73 -167 80
-229 36 -145 -105 -421 -540 -594 -937 -92 -212 -157 -325 -275 -484 -70 -94
-169 -201 -186 -201 -44 0 79 436 193 685 62 136 66 153 38 188 -48 61 -177
106 -228 78 -11 -6 -44 -55 -73 -108 -162 -303 -533 -862 -556 -839 -17 17
120 373 230 595 l71 145 -41 36 c-63 56 -163 78 -209 45 -12 -8 -52 -21 -91
-29 -38 -8 -122 -31 -187 -51 l-118 -37 -64 70 c-70 77 -136 124 -209 149
l-48 16 44 36 c161 130 305 296 369 423 41 81 42 85 38 163 -4 64 -11 93 -37
148 -62 129 -207 256 -339 297 -77 24 -213 26 -312 4z m354 -228 c116 -49 97
-167 -61 -377 -109 -146 -283 -324 -621 -637 l-122 -113 56 118 c31 65 63 134
71 153 8 19 71 151 140 292 122 249 126 257 113 288 -13 32 -62 69 -114 86
l-29 10 44 26 c123 71 264 130 365 152 89 19 117 19 158 2z m-229 -1563 c-65
-156 -437 -547 -727 -765 -80 -60 -175 -118 -193 -118 -12 0 36 104 78 167
137 204 431 473 755 690 52 35 96 63 98 63 3 0 -3 -17 -11 -37z"/>
<path d="M6882 5464 l-83 -86 -62 40 c-93 61 -145 82 -206 82 -80 0 -132 -30
-236 -134 -121 -121 -211 -245 -289 -396 -74 -145 -109 -236 -131 -349 -16
-77 -16 -83 2 -118 33 -67 176 -143 267 -143 71 0 96 23 404 376 35 40 42 44
37 24 -26 -110 -37 -183 -31 -212 16 -84 117 -164 221 -175 48 -5 63 -2 122
27 54 26 94 59 189 154 128 128 228 256 388 498 107 160 111 173 53 209 -18
10 -49 19 -69 19 -31 0 -39 -5 -59 -37 -137 -225 -375 -520 -464 -574 -46 -29
-55 -25 -55 25 0 93 117 357 256 576 40 63 67 116 67 133 1 57 -123 147 -203
147 -31 0 -45 -10 -118 -86z m-240 -181 c13 -11 18 -30 18 -66 0 -46 -5 -56
-57 -121 -180 -222 -415 -464 -421 -433 -5 25 37 137 85 227 67 125 159 255
238 337 74 77 101 88 137 56z"/>
<path d="M3891 4239 c-100 -100 -181 -189 -181 -198 0 -10 5 -22 12 -29 16
-16 3343 -17 3399 -2 36 10 67 49 55 68 -10 16 -90 21 -811 47 -1479 54 -1687
78 -2097 241 -76 30 -150 54 -167 54 -24 0 -57 -29 -210 -181z"/>
<path d="M6929 3833 c-63 -33 -99 -85 -99 -148 0 -62 28 -98 107 -135 37 -18
76 -39 86 -48 24 -22 21 -59 -8 -87 -21 -21 -33 -25 -87 -25 -35 1 -81 7 -103
15 -42 15 -55 9 -55 -28 0 -44 148 -73 241 -47 89 25 149 98 149 182 0 62 -29
95 -124 141 -85 41 -100 64 -69 106 28 37 86 48 154 28 29 -9 54 -15 55 -14 1
1 5 14 9 30 6 24 3 29 -29 42 -20 8 -66 15 -104 15 -55 0 -79 -5 -123 -27z"/>
<path d="M3446 3823 c-9 -47 -86 -481 -86 -487 0 -3 29 -6 65 -6 73 0 64 -10
85 105 20 111 17 105 58 105 l37 0 31 -103 30 -102 73 -3 c85 -3 82 -18 29
128 l-35 96 45 39 c68 59 90 132 57 194 -24 48 -75 61 -239 61 l-144 0 -6 -27z
m246 -50 c25 -23 23 -82 -5 -124 -24 -35 -49 -46 -111 -48 -35 -1 -38 1 -33
22 3 12 11 55 18 95 l12 72 50 0 c33 0 57 -6 69 -17z"/>
<path d="M4035 3838 c-6 -22 -85 -476 -85 -492 0 -14 24 -16 179 -16 l179 0 4
30 c3 17 2 32 0 35 -3 3 -54 5 -114 5 -99 0 -109 2 -105 18 3 9 8 35 11 57 4
22 9 52 12 68 l6 27 99 0 99 0 0 35 0 35 -94 0 -94 0 10 48 c20 102 6 91 120
94 l102 3 7 33 6 32 -169 0 c-126 0 -170 -3 -173 -12z"/>
<path d="M4545 3828 c-9 -42 -85 -474 -85 -486 0 -7 16 -12 40 -12 22 0 40 3
40 7 0 12 71 408 74 411 2 1 13 -71 25 -160 35 -257 24 -228 90 -228 l56 0 95
190 c52 104 95 188 97 186 2 -1 -13 -88 -32 -192 -19 -104 -35 -195 -35 -202
0 -10 16 -12 62 -10 l62 3 42 235 c24 129 43 245 43 258 1 21 -2 22 -84 22
l-85 0 -89 -177 -88 -177 -13 89 c-6 50 -17 128 -24 175 l-11 85 -87 3 c-84 3
-88 2 -93 -20z"/>
<path d="M5311 3596 c-78 -139 -141 -256 -141 -260 0 -3 19 -6 43 -6 42 0 42
0 82 73 l40 72 90 0 89 0 7 -35 c4 -19 10 -52 13 -72 l7 -38 69 0 c59 0 70 3
70 17 0 15 -52 305 -81 451 l-10 52 -69 0 -68 0 -141 -254z m188 -18 c1 -28 0
-28 -64 -28 l-65 0 52 103 52 102 12 -75 c7 -41 13 -87 13 -102z"/>
<path d="M5808 3820 c-3 -17 -2 -32 0 -35 3 -3 36 -5 74 -5 54 0 68 -3 68 -15
0 -9 -16 -103 -35 -209 -19 -107 -35 -201 -35 -210 0 -13 12 -16 65 -16 36 0
65 3 65 8 0 9 68 390 75 419 5 20 12 22 83 25 l77 3 3 33 3 32 -219 0 -220 0
-4 -30z"/>
<path d="M6376 3823 c-9 -47 -86 -481 -86 -487 0 -3 80 -6 179 -6 177 0 179 0
185 23 12 46 11 46 -107 49 l-113 3 16 80 15 80 96 3 c96 3 97 3 102 30 3 15
3 30 0 34 -2 5 -44 8 -94 8 -100 0 -95 -5 -78 83 l12 57 99 0 c97 0 99 1 108
26 6 14 10 30 10 35 0 5 -71 9 -169 9 l-169 0 -6 -27z"/>
</g>
</svg>
